<svg xmlns="http://www.w3.org/2000/svg" class="logo-goethe-institut" id="logo-gi" viewBox="0 0 69 32" width="69px" height="32px" data-name="logo"><title>Logo Goethe Institut</title><path d="M 39.4 13.725 c -2 0 -3.042 -1.095 -3.042 -3.168 c 0 -2.05 1.102 -3.177 3.102 -3.177 a 5.26 5.26 0 0 1 1.586 0.25 l -0.108 0.888 c -0.454 -0.143 -0.926 -0.217 -1.402 -0.22 c -1.364 0 -2 0.713 -2 2.243 c 0 1.504 0.616 2.267 1.83 2.267 a 3.92 3.92 0 0 0 0.57 -0.035 l 0.113 -0.018 V 11 h -0.872 v -0.882 h 1.98 v 3.31 c -0.563 0.204 -1.157 0.308 -1.756 0.308 Z m 22.22 -0.126 v -2.703 h -2.25 V 13.6 h -1.144 V 7.482 h 1.144 v 2.5 h 2.25 v -2.5 h 1.144 V 13.6 h -1.144 Z m -6.9 0 V 8.407 h -1.375 v -0.925 h 3.912 v 0.925 H 55.87 V 13.6 h -1.16 Z m -5.932 0 V 7.482 h 3.777 v 0.915 H 49.92 V 10 h 2.234 v 0.903 H 49.92 v 1.78 h 2.72 v 0.915 h -3.866 Z m 15.548 0 V 7.482 H 68.1 v 0.915 h -2.632 V 10 h 2.235 v 0.903 h -2.235 v 1.78 h 2.72 v 0.915 h -3.865 Z M 49.85 21.88 v -5.01 h -1.26 v -0.885 h 3.63 v 0.885 h -1.26 v 5.01 H 49.85 Z m -13.037 -5.896 h 1.126 v 5.896 h -1.126 v -5.896 Z m 24.93 6.002 c -1.414 0 -2.13 -0.698 -2.13 -2.075 v -3.926 h 1.114 v 3.877 c 0 0.813 0.334 1.208 1.02 1.208 s 1.01 -0.384 1.01 -1.208 v -3.877 h 1.1 v 3.926 c 0 1.377 -0.71 2.076 -2.114 2.076 Z m -15.46 0 c -0.55 0.007 -1.1 -0.124 -1.575 -0.38 l 0.136 -0.867 c 0.42 0.24 0.896 0.372 1.38 0.38 c 0.59 0 0.927 -0.295 0.927 -0.81 c 0 -0.536 -0.47 -0.746 -1.014 -1 c -0.63 -0.283 -1.416 -0.635 -1.416 -1.692 c 0 -1.09 0.714 -1.742 1.91 -1.742 c 0.447 -0.008 0.9 0.08 1.3 0.26 l -0.117 0.85 a 2.77 2.77 0 0 0 -1.069 -0.227 c -0.773 0 -0.935 0.4 -0.935 0.736 c 0 0.453 0.435 0.644 0.938 0.865 c 0.665 0.292 1.492 0.656 1.492 1.793 s -0.732 1.823 -1.96 1.823 Z m -3.747 -0.106 l -1.827 -3.47 l -0.224 0.055 v 3.414 h -0.998 v -5.896 h 1.04 l 1.828 3.47 l 0.223 -0.055 v -3.414 h 1 v 5.896 h -1.04 Z m 23.415 0 v -5.01 h -1.26 v -0.885 h 3.63 v 0.885 h -1.26 v 5.01 H 65.95 Z m -12.836 -5.896 h 1.126 v 5.896 h -1.126 v -5.896 Z m 3.28 5.896 v -5.01 h -1.26 v -0.885 h 3.63 v 0.885 h -1.258 v 5.01 h -1.113 Z M 10.315 16 a 5.74 5.74 0 0 1 5.742 -5.742 v 1.067 c -2.582 0 -4.675 2.093 -4.675 4.675 s 2.093 4.675 4.675 4.675 s 4.675 -2.093 4.675 -4.675 H 21.8 c 0 3.17 -2.57 5.742 -5.742 5.742 S 10.315 19.17 10.315 16 Z M 5.2 16 A 10.86 10.86 0 0 1 16.057 5.143 V 6.2 A 9.79 9.79 0 0 0 6.268 16 a 9.79 9.79 0 0 0 19.58 0 h 1.067 c 0 3.88 -2.07 7.463 -5.428 9.402 s -7.498 1.94 -10.857 0 S 5.2 19.88 5.2 16 Z m 2.562 0 c 0 -4.58 3.714 -8.294 8.294 -8.294 v 1.067 a 7.23 7.23 0 0 0 -5.111 12.337 A 7.23 7.23 0 0 0 23.284 16 h 1.067 c -0.04 4.552 -3.742 8.222 -8.294 8.222 S 7.803 20.552 7.763 16 Z m 24.294 0 c 0 8.837 -7.163 16 -16 16 s -16 -7.163 -16 -16 s 7.163 -16 16 -16 v 1.067 C 7.8 1.067 1.124 7.753 1.124 16 S 7.8 30.933 16.057 30.933 S 30.99 24.247 30.99 16 h 1.067 Z M 2.623 16 c 0 -7.42 6.015 -13.435 13.435 -13.435 v 1.067 A 12.37 12.37 0 0 0 3.69 16 a 12.37 12.37 0 0 0 12.368 12.368 A 12.37 12.37 0 0 0 28.425 16 h 1.067 c 0 7.42 -6.015 13.435 -13.435 13.435 S 2.623 23.42 2.623 16 Z m 42.317 -2.215 c -1.746 0 -2.56 -1.032 -2.56 -3.248 c 0 -2.2 0.813 -3.24 2.56 -3.24 s 2.56 1.03 2.56 3.24 c 0 2.247 -0.8 3.248 -2.56 3.248 Z m 0 -5.576 c -1.215 0 -1.382 1.12 -1.382 2.327 c 0 2.06 0.668 2.344 1.39 2.344 c 1.207 0 1.374 -1.127 1.374 -2.344 c 0 -1.675 -0.388 -2.327 -1.383 -2.327 Z M 26.222 1.092 a 4.75 4.75 0 0 0 -4.743 4.743 c 0 1.918 1.156 3.648 2.928 4.382 s 3.812 0.328 5.17 -1.028 s 1.762 -3.397 1.028 -5.17 s -2.464 -2.928 -4.382 -2.928 Z m 0 -1.092 c 3.223 0 5.835 2.613 5.835 5.836 c 0 2.36 -1.422 4.488 -3.602 5.39 s -4.69 0.404 -6.36 -1.265 s -2.168 -4.18 -1.265 -6.36 S 23.862 0 26.222 0 Z"/></svg>